<svg width="336" height="138" fill="none" xmlns="http://www.w3.org/2000/svg"><path d="M46.272 56.632v35.712c0 1.024.16 1.728.48 2.112.384.384 1.024.608 1.92.672l3.072.192V103H36.48v-5.568l-.288-.096c-3.2 4.608-7.584 6.912-13.152 6.912-6.528 0-11.36-2.08-14.496-6.24-3.136-4.16-4.704-9.856-4.704-17.088 0-8.704 2.112-15.488 6.336-20.352 4.224-4.864 10.56-7.296 19.008-7.296 5.44 0 11.136 1.12 17.088 3.36ZM35.136 87.736V62.872c-1.792-.832-4.256-1.248-7.392-1.248-4.288 0-7.392 1.728-9.312 5.184-1.92 3.456-2.88 8.032-2.88 13.728 0 10.368 3.328 15.552 9.984 15.552 2.816 0 5.12-.832 6.912-2.496 1.792-1.728 2.688-3.68 2.688-5.856Zm21.925-25.344v-7.68h16.224v6.24c1.664-2.368 3.872-4.224 6.624-5.568 2.752-1.408 5.728-2.112 8.928-2.112 4.864 0 8.608 1.408 11.232 4.224 2.688 2.752 4.032 6.912 4.032 12.48v25.056l5.472.288V103H86.725v-7.296l3.168-.288c.96-.128 1.664-.384 2.112-.768.448-.448.672-1.248.672-2.4V72.472c0-3.52-.544-6.112-1.632-7.776-1.088-1.728-3.168-2.592-6.24-2.592-3.008 0-5.408.96-7.2 2.88-1.792 1.92-2.688 4.192-2.688 6.816v23.232l5.472.288V103H57.54v-7.296l3.168-.288c.96-.128 1.664-.384 2.112-.768.448-.448.672-1.248.672-2.4V65.656c0-1.92-.8-2.912-2.4-2.976l-4.032-.288Zm93.466 38.784V93.88c-3.52 4.992-8.704 7.488-15.552 7.488-9.92 0-14.88-5.536-14.88-16.608V65.464c0-1.728-.8-2.624-2.4-2.688l-3.072-.192v-7.872h16.896v27.552c0 3.392.48 5.952 1.44 7.68.96 1.728 2.944 2.592 5.952 2.592s5.408-.928 7.2-2.784c1.856-1.856 2.784-4.096 2.784-6.72V65.656c0-1.088-.192-1.824-.576-2.208-.32-.448-.928-.672-1.824-.672l-3.072-.192v-7.872h16.896v46.464c0 7.744-1.888 13.408-5.664 16.992-3.712 3.584-9.376 5.376-16.992 5.376-7.552 0-13.44-1.056-17.664-3.168v-13.344l9.12-.768v4.608c0 1.728.8 2.88 2.4 3.456 1.6.64 3.808.96 6.624.96 8.256 0 12.384-4.704 12.384-14.112Zm76.784-38.784v-7.68h16.224v6.24c1.664-2.368 3.872-4.224 6.624-5.568 2.752-1.408 5.728-2.112 8.928-2.112 4.864 0 8.608 1.408 11.232 4.224 2.688 2.752 4.032 6.912 4.032 12.48v25.056l5.472.288V103h-22.848v-7.296l3.168-.288c.96-.128 1.664-.384 2.112-.768.448-.448.672-1.248.672-2.4V72.472c0-3.52-.544-6.112-1.632-7.776-1.088-1.728-3.168-2.592-6.24-2.592-3.008 0-5.408.96-7.2 2.88-1.792 1.92-2.688 4.192-2.688 6.816v23.232l5.472.288V103h-22.848v-7.296l3.168-.288c.96-.128 1.664-.384 2.112-.768.448-.448.672-1.248.672-2.4V65.656c0-1.92-.8-2.912-2.4-2.976l-4.032-.288Zm82.234-9.12c4.8 0 8.608 1.184 11.424 3.552 2.816 2.304 4.224 5.568 4.224 9.792 0 2.816-.608 5.312-1.824 7.488-1.216 2.112-2.72 3.776-4.512 4.992-1.792 1.216-3.968 2.208-6.528 2.976-4.288 1.28-9.12 1.92-14.496 1.92.192 3.392 1.248 6.144 3.168 8.256 1.92 2.048 4.864 3.072 8.832 3.072 3.968 0 7.936-1.408 11.904-4.224l3.648 7.776c-1.28 1.152-3.456 2.336-6.528 3.552-3.008 1.216-6.464 1.824-10.368 1.824-7.808 0-13.536-2.144-17.184-6.432-3.648-4.352-5.472-10.304-5.472-17.856 0-7.552 2.08-13.888 6.24-19.008 4.16-5.12 9.984-7.68 17.472-7.68Zm-4.416 21.984a16.435 16.435 0 0 0 6.528-2.784c1.984-1.472 2.976-3.2 2.976-5.184 0-3.904-1.92-5.856-5.76-5.856-3.584 0-6.336 1.44-8.256 4.32-1.92 2.816-2.976 6.208-3.168 10.176 2.816-.064 5.376-.288 7.68-.672Z" fill="#fff"/><circle cx="195" cy="77" r="26" fill="#8271FF"/></svg>